<svg width="1080" height="1080" viewBox="0 0 1080 1080" fill="none" xmlns="http://www.w3.org/2000/svg">
<g clip-path="url(#clip0_193_26)">
<ellipse cx="540" cy="1061" rx="283" ry="218" fill="white"/>
<path d="M110.012 296.925C101.35 271.086 128.844 248.015 152.787 261.033L391.111 390.615C409.691 400.718 412.265 426.358 396.064 439.953L243.969 567.575C227.768 581.17 202.964 574.182 196.241 554.13L110.012 296.925Z" fill="white"/>
<path d="M951.557 277.575C977.319 268.687 1000.63 295.979 987.821 320.034L860.323 559.48C850.383 578.148 824.766 580.946 811.031 564.864L682.085 413.888C668.35 397.807 675.121 372.942 695.114 366.045L951.557 277.575Z" fill="white"/>
<path d="M174.91 370.379C167.98 349.708 189.976 331.251 209.13 341.665L343.127 414.523C357.991 422.605 360.05 443.117 347.09 453.993L261.575 525.748C248.614 536.624 228.77 531.034 223.392 514.992L174.91 370.379Z" fill="#B55E5E"/>
<path d="M898.419 334.475C919.029 327.365 937.677 349.199 927.43 368.443L855.745 503.071C847.793 518.005 827.299 520.244 816.311 507.378L743.812 422.492C732.824 409.627 738.241 389.736 754.235 384.218L898.419 334.475Z" fill="#B55E5E"/>
<path d="M897.681 676.937C897.681 869.96 735.608 960.437 535.681 960.437C335.754 960.437 173.681 869.96 173.681 676.937C173.681 483.913 335.754 327.437 535.681 327.437C735.608 327.437 897.681 483.913 897.681 676.937Z" fill="white"/>
<path d="M590.588 729.174C581.088 755.436 563.388 773.936 539.088 773.936C514.787 773.936 498.7 748.331 488.088 729.174C461.088 680.437 514.787 680.437 539.088 680.437C600.088 680.437 601.707 698.437 590.588 729.174Z" fill="#B55E5E"/>
<path d="M804.681 604.437C804.681 661.322 760.581 694.937 706.181 694.937C651.781 694.937 607.681 661.322 607.681 604.437C607.681 547.551 651.781 501.437 706.181 501.437C760.581 501.437 804.681 547.551 804.681 604.437Z" fill="#6B9F37"/>
<ellipse cx="702.181" cy="601.437" rx="51.5" ry="59" fill="#1E1E1E"/>
<path d="M473.681 599.437C473.681 656.322 429.581 690.937 375.181 690.937C320.781 690.937 276.681 656.322 276.681 599.437C276.681 542.551 320.781 496.437 375.181 496.437C429.581 496.437 473.681 542.551 473.681 599.437Z" fill="#6B9F37"/>
<ellipse cx="374.681" cy="601.937" rx="52" ry="65.5" fill="#1E1E1E"/>
<line x1="645.236" y1="723.487" x2="947.236" y2="654.487" stroke="black" stroke-width="4"/>
<line y1="-2" x2="309.782" y2="-2" transform="matrix(-0.974879 -0.222737 -0.222737 0.974879 426 725)" stroke="black" stroke-width="4"/>
<line x1="635.744" y1="754.742" x2="898.744" y2="919.742" stroke="black" stroke-width="4"/>
<line y1="-2" x2="310.474" y2="-2" transform="matrix(-0.847092 0.531446 0.531446 0.847092 437 756)" stroke="black" stroke-width="4"/>
<line x1="634.899" y1="754.448" x2="935.899" y2="787.448" stroke="black" stroke-width="4"/>
<line y1="-2" x2="302.804" y2="-2" transform="matrix(-0.994044 0.108982 0.108982 0.994044 437 756)" stroke="black" stroke-width="4"/>
<ellipse cx="360.181" cy="579.437" rx="10.5" ry="14" fill="#D9D9D9"/>
<circle cx="393.681" cy="592.437" r="6" fill="#D9D9D9"/>
<circle cx="725.681" cy="592.437" r="6" fill="#D9D9D9"/>
<ellipse cx="692.181" cy="585.937" rx="10.5" ry="16.5" fill="#D9D9D9"/>
<path d="M538.681 768.661C502.072 803.613 464.681 771.117 464.681 760.437" stroke="#B55E5E" stroke-width="10"/>
<path d="M542.681 768.661C582.259 803.613 622.681 771.117 622.681 760.437" stroke="#B55E5E" stroke-width="10"/>
</g>
<defs>
<clipPath id="clip0_193_26">
<rect width="1080" height="1080" fill="white"/>
</clipPath>
</defs>
</svg>
