<svg width="32" height="13" viewBox="0 0 32 13" fill="none" xmlns="http://www.w3.org/2000/svg">
<path d="M6.62198 1.25906H7.6788V7.03746C7.6788 7.63406 7.53818 8.16673 7.25693 8.63548C6.97852 9.10138 6.58505 9.46928 6.07653 9.73917C5.568 10.0062 4.97141 10.1397 4.28675 10.1397C3.6021 10.1397 3.0055 10.0062 2.49698 9.73917C1.98846 9.46928 1.59357 9.10138 1.31232 8.63548C1.03391 8.16673 0.894709 7.63406 0.894709 7.03746V1.25906H1.95153V6.95224C1.95153 7.37837 2.04528 7.75763 2.23278 8.09002C2.42028 8.41957 2.68732 8.67951 3.03391 8.86985C3.38335 9.05735 3.80096 9.1511 4.28675 9.1511C4.77255 9.1511 5.19016 9.05735 5.5396 8.86985C5.88903 8.67951 6.15607 8.41957 6.34073 8.09002C6.52823 7.75763 6.62198 7.37837 6.62198 6.95224V1.25906ZM10.5904 7.59996L10.5733 6.35565H10.7779L13.6415 3.44087H14.8858L11.8347 6.5261H11.7495L10.5904 7.59996ZM9.65288 9.98633V1.25906H10.6586V9.98633H9.65288ZM13.812 9.98633L11.2551 6.74769L11.9711 6.04883L15.0904 9.98633H13.812ZM16.1802 9.98633V3.44087H17.1859V9.98633H16.1802ZM16.6916 2.34996C16.4956 2.34996 16.3265 2.2832 16.1845 2.14968C16.0453 2.01616 15.9757 1.85565 15.9757 1.66815C15.9757 1.48065 16.0453 1.32013 16.1845 1.18661C16.3265 1.05309 16.4956 0.986328 16.6916 0.986328C16.8876 0.986328 17.0552 1.05309 17.1944 1.18661C17.3365 1.32013 17.4075 1.48065 17.4075 1.66815C17.4075 1.85565 17.3365 2.01616 17.1944 2.14968C17.0552 2.2832 16.8876 2.34996 16.6916 2.34996ZM19.6756 12.4409C19.5051 12.4409 19.3532 12.4267 19.2196 12.3983C19.0861 12.3727 18.9938 12.3471 18.9426 12.3216L19.1983 11.4352C19.4426 11.4977 19.6586 11.5204 19.8461 11.5034C20.0336 11.4863 20.1998 11.4025 20.3446 11.252C20.4924 11.1042 20.6273 10.8642 20.7495 10.5318L20.937 10.0204L18.5165 3.44087H19.6074L21.4142 8.65678H21.4824L23.2892 3.44087H24.3801L21.6017 10.9409C21.4767 11.2789 21.3219 11.5588 21.1373 11.7804C20.9526 12.0048 20.7381 12.171 20.4938 12.2789C20.2523 12.3869 19.9796 12.4409 19.6756 12.4409ZM28.1323 10.1227C27.5414 10.1227 27.0229 9.98207 26.5769 9.70082C26.1337 9.41957 25.7871 9.0261 25.5371 8.52042C25.29 8.01474 25.1664 7.42383 25.1664 6.74769C25.1664 6.06587 25.29 5.4707 25.5371 4.96218C25.7871 4.45366 26.1337 4.05877 26.5769 3.77752C27.0229 3.49627 27.5414 3.35565 28.1323 3.35565C28.7232 3.35565 29.2402 3.49627 29.6834 3.77752C30.1294 4.05877 30.476 4.45366 30.7232 4.96218C30.9732 5.4707 31.0982 6.06587 31.0982 6.74769C31.0982 7.42383 30.9732 8.01474 30.7232 8.52042C30.476 9.0261 30.1294 9.41957 29.6834 9.70082C29.2402 9.98207 28.7232 10.1227 28.1323 10.1227ZM28.1323 9.21928C28.5811 9.21928 28.9505 9.10423 29.2402 8.87411C29.53 8.644 29.7445 8.34144 29.8837 7.96644C30.0229 7.59144 30.0925 7.18519 30.0925 6.74769C30.0925 6.31019 30.0229 5.90252 29.8837 5.52468C29.7445 5.14684 29.53 4.84144 29.2402 4.60849C28.9505 4.37553 28.5811 4.25906 28.1323 4.25906C27.6834 4.25906 27.3141 4.37553 27.0243 4.60849C26.7346 4.84144 26.5201 5.14684 26.3809 5.52468C26.2417 5.90252 26.1721 6.31019 26.1721 6.74769C26.1721 7.18519 26.2417 7.59144 26.3809 7.96644C26.5201 8.34144 26.7346 8.644 27.0243 8.87411C27.3141 9.10423 27.6834 9.21928 28.1323 9.21928Z" fill="#2563EB"/>
</svg>
