<svg width="33" height="13" viewBox="0 0 33 13" fill="none" xmlns="http://www.w3.org/2000/svg">
<path d="M5.98704 1.25906H7.83221V6.92667C7.83221 7.56303 7.68022 8.11985 7.37624 8.59712C7.07511 9.0744 6.65323 9.44656 6.11062 9.7136C5.568 9.97781 4.9359 10.1099 4.21431 10.1099C3.48988 10.1099 2.85636 9.97781 2.31374 9.7136C1.77113 9.44656 1.34925 9.0744 1.04812 8.59712C0.746982 8.11985 0.596413 7.56303 0.596413 6.92667V1.25906H2.44158V6.769C2.44158 7.10138 2.51403 7.39684 2.65891 7.65536C2.80664 7.91388 3.01403 8.11701 3.28107 8.26474C3.54812 8.41246 3.8592 8.48633 4.21431 8.48633C4.57227 8.48633 4.88335 8.41246 5.14755 8.26474C5.4146 8.11701 5.62056 7.91388 5.76545 7.65536C5.91317 7.39684 5.98704 7.10138 5.98704 6.769V1.25906ZM10.9611 8.10281L10.9654 5.92525H11.2296L13.3262 3.44087H15.41L12.5932 6.73065H12.1628L10.9611 8.10281ZM9.31623 9.98633V1.25906H11.1316V9.98633H9.31623ZM13.4071 9.98633L11.481 7.13548L12.6912 5.85281L15.5336 9.98633H13.4071ZM16.3006 9.98633V3.44087H18.1159V9.98633H16.3006ZM17.2125 2.59712C16.9426 2.59712 16.7111 2.50763 16.5179 2.32866C16.3276 2.14684 16.2324 1.92951 16.2324 1.67667C16.2324 1.42667 16.3276 1.21218 16.5179 1.0332C16.7111 0.851385 16.9426 0.760475 17.2125 0.760475C17.4824 0.760475 17.7125 0.851385 17.9029 1.0332C18.0961 1.21218 18.1926 1.42667 18.1926 1.67667C18.1926 1.92951 18.0961 2.14684 17.9029 2.32866C17.7125 2.50763 17.4824 2.59712 17.2125 2.59712ZM20.6909 12.4409C20.4608 12.4409 20.2449 12.4224 20.0431 12.3855C19.8443 12.3514 19.6795 12.3074 19.5488 12.2534L19.9579 10.8983C20.171 10.9636 20.3627 10.9991 20.5332 11.0048C20.7065 11.0105 20.8556 10.9707 20.9806 10.8855C21.1085 10.8002 21.2122 10.6554 21.2917 10.4508L21.3983 10.1738L19.0502 3.44087H20.9593L22.3145 8.24769H22.3826L23.7505 3.44087H25.6724L23.1284 10.6937C23.0062 11.046 22.84 11.3528 22.6298 11.6142C22.4224 11.8784 22.1596 12.0815 21.8414 12.2235C21.5233 12.3684 21.1397 12.4409 20.6909 12.4409ZM29.3478 10.1142C28.6859 10.1142 28.1135 9.97354 27.6305 9.69229C27.1504 9.4082 26.7797 9.01332 26.5183 8.50763C26.2569 7.99911 26.1262 7.40962 26.1262 6.73917C26.1262 6.06303 26.2569 5.47212 26.5183 4.96644C26.7797 4.45792 27.1504 4.06303 27.6305 3.78178C28.1135 3.49769 28.6859 3.35565 29.3478 3.35565C30.0098 3.35565 30.5808 3.49769 31.0609 3.78178C31.5439 4.06303 31.916 4.45792 32.1774 4.96644C32.4387 5.47212 32.5694 6.06303 32.5694 6.73917C32.5694 7.40962 32.4387 7.99911 32.1774 8.50763C31.916 9.01332 31.5439 9.4082 31.0609 9.69229C30.5808 9.97354 30.0098 10.1142 29.3478 10.1142ZM29.3564 8.70792C29.6575 8.70792 29.9089 8.62269 30.1106 8.45224C30.3123 8.27894 30.4643 8.04315 30.5666 7.74485C30.6717 7.44656 30.7243 7.10707 30.7243 6.72638C30.7243 6.3457 30.6717 6.00621 30.5666 5.70792C30.4643 5.40962 30.3123 5.17383 30.1106 5.00053C29.9089 4.82724 29.6575 4.74059 29.3564 4.74059C29.0524 4.74059 28.7967 4.82724 28.5893 5.00053C28.3848 5.17383 28.2299 5.40962 28.1248 5.70792C28.0225 6.00621 27.9714 6.3457 27.9714 6.72638C27.9714 7.10707 28.0225 7.44656 28.1248 7.74485C28.2299 8.04315 28.3848 8.27894 28.5893 8.45224C28.7967 8.62269 29.0524 8.70792 29.3564 8.70792Z" fill="#2563EB"/>
</svg>
