<svg width="1080" height="1080" viewBox="0 0 1080 1080" fill="none" xmlns="http://www.w3.org/2000/svg">
<g clip-path="url(#clip0_112_320)">
<path d="M103.012 156.701C94.3495 130.862 121.844 107.791 145.787 120.809L384.111 250.392C402.691 260.494 405.265 286.135 389.064 299.729L236.969 427.352C220.768 440.946 195.964 433.959 189.241 413.906L103.012 156.701Z" fill="white"/>
<path d="M816 920.776C816 1041.17 728.797 6310 572.5 6310C416.203 6310 250 1041.17 250 920.776C250 800.378 376.703 702.776 533 702.776C689.297 702.776 816 800.378 816 920.776Z" fill="white"/>
<path d="M944.558 137.351C970.32 128.463 993.63 155.756 980.822 179.811L853.324 419.257C843.384 437.924 817.767 440.722 804.032 424.64L675.086 273.665C661.351 257.583 668.122 232.719 688.115 225.822L944.558 137.351Z" fill="white"/>
<path d="M167.911 230.155C160.981 209.484 182.977 191.027 202.13 201.442L336.128 274.299C350.992 282.381 353.051 302.894 340.09 313.769L254.575 385.525C241.614 396.4 221.771 390.81 216.393 374.768L167.911 230.155Z" fill="#B55E5E"/>
<path d="M891.419 194.252C912.029 187.142 930.677 208.976 920.431 228.22L848.745 362.848C840.793 377.782 820.3 380.02 809.311 367.154L736.812 282.269C725.824 269.403 731.241 249.512 747.235 243.994L891.419 194.252Z" fill="#B55E5E"/>
<path d="M895 536.713C895 729.736 732.927 820.213 533 820.213C333.073 820.213 171 729.736 171 536.713C171 343.689 333.073 187.213 533 187.213C732.927 187.213 895 343.689 895 536.713Z" fill="white"/>
<path d="M583.588 588.95C574.088 615.213 556.389 633.713 532.088 633.713C507.788 633.713 491.701 608.107 481.088 588.95C454.088 540.213 507.788 540.213 532.088 540.213C593.088 540.213 594.707 558.213 583.588 588.95Z" fill="#B55E5E"/>
<path d="M797.682 464.213C797.682 521.098 753.582 554.713 699.182 554.713C644.782 554.713 600.682 521.098 600.682 464.213C600.682 407.328 644.782 361.213 699.182 361.213C753.582 361.213 797.682 407.328 797.682 464.213Z" fill="#6B9F37"/>
<ellipse cx="695.182" cy="461.213" rx="51.5" ry="59" fill="#1E1E1E"/>
<path d="M466.682 459.213C466.682 516.098 422.582 550.713 368.182 550.713C313.782 550.713 269.682 516.098 269.682 459.213C269.682 402.328 313.782 356.213 368.182 356.213C422.582 356.213 466.682 402.328 466.682 459.213Z" fill="#6B9F37"/>
<ellipse cx="367.682" cy="461.713" rx="52" ry="65.5" fill="#1E1E1E"/>
<line x1="638.236" y1="583.263" x2="940.236" y2="514.263" stroke="black" stroke-width="4"/>
<line y1="-2" x2="309.782" y2="-2" transform="matrix(-0.974879 -0.222737 -0.222737 0.974879 419 584.776)" stroke="black" stroke-width="4"/>
<line x1="628.745" y1="614.519" x2="891.745" y2="779.519" stroke="black" stroke-width="4"/>
<line y1="-2" x2="310.474" y2="-2" transform="matrix(-0.847092 0.531446 0.531446 0.847092 430 615.776)" stroke="black" stroke-width="4"/>
<line x1="627.9" y1="614.225" x2="928.9" y2="647.225" stroke="black" stroke-width="4"/>
<line y1="-2" x2="302.804" y2="-2" transform="matrix(-0.994044 0.108982 0.108982 0.994044 430 615.776)" stroke="black" stroke-width="4"/>
<ellipse cx="353.182" cy="439.213" rx="10.5" ry="14" fill="#D9D9D9"/>
<circle cx="386.682" cy="452.213" r="6" fill="#D9D9D9"/>
<circle cx="718.682" cy="452.213" r="6" fill="#D9D9D9"/>
<ellipse cx="685.182" cy="445.713" rx="10.5" ry="16.5" fill="#D9D9D9"/>
<path d="M531.682 628.437C495.072 663.39 457.682 630.893 457.682 620.213" stroke="#B55E5E" stroke-width="10"/>
<path d="M535.682 628.437C575.259 663.39 615.682 630.893 615.682 620.213" stroke="#B55E5E" stroke-width="10"/>
</g>
<defs>
<clipPath id="clip0_112_320">
<rect width="1080" height="1080" fill="white"/>
</clipPath>
</defs>
</svg>
